<svg xmlns="http://www.w3.org/2000/svg" viewBox="0 0 3000 3000" width="3000" height="3000"><g transform="translate(1874.0 2416.0) rotate(0.0 290.0 165.0) scale(1.3296500498618768 1.3262492866386413)"><svg width="436.205" height="248.822" viewBox="0 0 436.205 248.822"><clipPath id="a"><path d="m231.978 114.609.713 3.138c3.375 14.282 8.652 29.242 15.859 44.181.089.198.185.391.28.589.364.749.735 1.499 1.106 2.242 7.1 14.245 15.337 27.145 24.189 38.328.677.862 1.361 1.706 2.052 2.543 11.543 14.09 24.06 25.271 36.447 32.721a87.347 87.347 0 0 0 3.106 1.792c.012.013.032.02.044.027l.209.121c16.087 8.812 31.785 11.181 44.656 5.296l31.697-14.492 6.403-2.925 11.631-5.317c32.311-14.763 34.631-75.897 5.184-136.549-29.443-60.643-79.506-97.838-111.811-83.068l-11.61 5.299-.007.006v.006l-6.403 2.925-.007.006-31.703 14.485c-12.878 5.891-20.989 19.137-24.223 36.782a76.933 76.933 0 0 0-.608 3.753c-1.97 14.012-1.05 30.499 2.796 48.112z"/></clipPath><path d="M50.466 123.277h264.889v60.587H50.466z" fill="#d9c6f4"/><rect fill="#d9c6f4" height="59.641" rx="4.075" width="264.427" x="21.422" y="64.021"/><path d="M203.276 64.021h5v59.592h-5zm-56.854 0h5v59.256h-5zm-54.109 0h5v59.256h-5zm-50.639 0h5v59.641h-5z" fill="#232323"/><path d="m279.367 121.733-232.784-.567" fill="#fff"/><g fill="#232323"><path d="m46.575 123.667.012-5 232.785.564-.012 5zm3.891 54.011h198.949v5H50.466z"/><path d="M175.928 122.61h5v59.925h-5zm-54.11 0h5v59.925h-5zm-50.638 1h5v59.925h-5z"/></g><rect fill="#d9c6f4" height="59.568" rx="4.652" width="264.577" y="182.533"/><path d="M234.741 182.2h5v59.925h-5zm-52.737 0h5v59.925h-5zm-56.854 0h5v59.901h-5z" fill="#232323"/><path d="m73.18 242.101.5-61.236" fill="#fff"/><path d="m70.678 242.08.502-61.235 5 .04-.502 61.237zm-50.277-59.547h5v59.568h-5zM219.326 64.021l25.068-.333s14.351 126.788 72.987 167.851c9.526 6.671 24.333 11.318 24.333 11.318s-55.251-.819-81.062-.819c-12.23-16.941-25.723-44.227-35.68-82.398-10.653-40.838-5.645-95.619-5.645-95.619z" fill="#232323"/><path d="m231.978 114.609.713 3.138c3.375 14.282 8.652 29.242 15.859 44.181.089.198.185.391.28.589.364.749.735 1.499 1.106 2.242 7.1 14.245 15.337 27.145 24.189 38.328.677.862 1.361 1.706 2.052 2.543 11.543 14.09 24.06 25.271 36.447 32.721a87.347 87.347 0 0 0 3.106 1.792c.012.013.032.02.044.027l.209.121c16.087 8.812 31.785 11.181 44.656 5.296l31.697-14.492 6.403-2.925 11.631-5.317c32.311-14.763 34.631-75.897 5.184-136.549-29.443-60.643-79.506-97.838-111.811-83.068l-11.61 5.299-.007.006v.006l-6.403 2.925-.007.006-31.703 14.485c-12.878 5.891-20.989 19.137-24.223 36.782a76.933 76.933 0 0 0-.608 3.753c-1.97 14.012-1.05 30.499 2.796 48.112z" fill="#d9c6f4"/><g clip-path="url(#a)" fill="#232323"><path d="M395.001 234.44c-.081 0-.162-.004-.244-.012-10.349-1.002-24.111-5.937-35.061-12.571a106.335 106.335 0 0 1-3.271-2.065 120.227 120.227 0 0 1-5.082-3.494c-10.923-7.912-21.414-18.036-31.181-30.089a154.598 154.598 0 0 1-2.058-2.589c-9.164-11.693-17.362-24.748-24.359-38.793-.374-.751-.749-1.508-1.116-2.264l-.069-.142a17.35 17.35 0 0 1-.244-.517c-7.086-14.674-12.515-29.692-16.107-44.572a145.689 145.689 0 0 1-.743-3.192c-3.354-14.942-4.72-29.246-4.055-42.501.11-2.169.262-4.147.461-6.05.119-1.209.266-2.441.446-3.752 1.606-11.744 5.951-27.533 12.036-36.331a2.5 2.5 0 1 1 4.112 2.844c-4.786 6.92-9.389 20.969-11.194 34.167a91.903 91.903 0 0 0-.425 3.579 106.53 106.53 0 0 0-.441 5.796c-.643 12.802.684 26.654 3.942 41.167.228 1.041.472 2.069.722 3.097 3.509 14.538 8.818 29.219 15.779 43.638.087.192.148.316.209.442l.072.148c.357.735.725 1.478 1.092 2.214 6.847 13.743 14.862 26.51 23.826 37.947.66.85 1.327 1.686 2 2.516 9.49 11.713 19.661 21.533 30.23 29.188a114.043 114.043 0 0 0 4.882 3.357c.991.652 2.011 1.296 3.131 1.976 10.354 6.274 23.289 10.934 32.949 11.869a2.5 2.5 0 0 1-.238 4.988z"/><path d="M247.878 164.715a2.501 2.501 0 0 1-1.04-4.775l46.721-21.333a2.5 2.5 0 0 1 2.077 4.549l-46.721 21.333a2.48 2.48 0 0 1-1.036.226zm63.226 76.834a2.499 2.499 0 0 1-1.041-4.774l46.697-21.344a2.5 2.5 0 0 1 2.079 4.547l-46.697 21.344a2.487 2.487 0 0 1-1.037.227zm-36.977-35.96a2.499 2.499 0 0 1-1.041-4.774l45.954-21.001a2.5 2.5 0 0 1 2.079 4.548l-45.954 21.001a2.49 2.49 0 0 1-1.037.227zM228.179 65.983a2.499 2.499 0 0 1-1.041-4.774l46.617-21.305a2.5 2.5 0 0 1 2.079 4.548l-46.617 21.305a2.49 2.49 0 0 1-1.037.227zm3.802 51.126a2.5 2.5 0 0 1-1.042-4.773l44.404-20.315a2.5 2.5 0 1 1 2.08 4.546l-44.404 20.315c-.337.154-.69.227-1.038.227zm162.53 99.782c-.46 0-.922-.009-1.387-.027-11.258-.437-24.083-6.237-37.089-16.774-18.29-14.818-35.499-37.674-48.457-64.357-12.955-26.698-20.163-54.137-20.295-77.263-.132-24.229 7.543-41.115 21.609-47.548 14.033-6.411 32.291-1.409 51.41 14.083 18.28 14.804 35.486 37.657 48.449 64.35 12.962 26.699 20.17 54.138 20.295 77.264.138 24.228-7.534 41.115-21.603 47.547-3.963 1.81-8.308 2.725-12.934 2.725zM292.283 58.442c.128 22.394 7.157 49.068 19.793 75.107 12.645 26.037 29.374 48.289 47.106 62.655 12.16 9.852 23.965 15.268 34.135 15.663 4.354.17 8.41-.587 12.048-2.249 12.173-5.566 18.808-20.827 18.682-42.972-.121-22.394-7.15-49.067-19.793-75.107-12.649-26.047-29.376-48.296-47.099-62.648-17.569-14.234-33.972-19-46.184-13.421-12.171 5.565-18.808 20.829-18.688 42.972z"/><path d="M363.099 183.275a2.5 2.5 0 0 1-2.258-3.568c12.333-26.129 24.654-54.874 14.648-65.241-5.885-6.098-11.61-3.738-20.468.624-7.479 3.683-16.783 8.264-24.547.222-8.871-9.193-12.854-30.094 18.556-77.467a2.501 2.501 0 0 1 4.168 2.763c-23.076 34.803-29.868 60.101-19.126 71.232 4.877 5.052 10.331 2.906 18.738-1.234 8.229-4.053 17.556-8.647 26.276.389 12.229 12.67.485 40.742-13.725 70.847a2.5 2.5 0 0 1-2.263 1.433z"/><path d="M334.656 69.214a2.5 2.5 0 0 1-2.229-1.364l-11.158-21.871a2.499 2.499 0 1 1 4.453-2.272l11.158 21.871a2.498 2.498 0 0 1-2.225 3.636zm50.918 113.114a2.5 2.5 0 0 1-2.267-1.442l-10.981-23.51a2.5 2.5 0 1 1 4.529-2.116l10.981 23.51a2.5 2.5 0 0 1-2.263 3.558z"/></g></svg></g><g transform="translate(821.0 2824.0) rotate(0.0 155.5 34.0) scale(1.1813461268180765 1.2219666474985624)"><svg width="263.259" height="55.648" viewBox="0 0 263.259 55.648"><ellipse cx="131.63" cy="27.824" fill="#232323" rx="131.63" ry="27.824"/></svg></g><g transform="translate(420.0 124.0) rotate(0.0 877.5 1378.0) scale(1.0987339204516642 1.0984828102984756)"><svg width="1597.293" height="2508.915" viewBox="0 0 1597.293 2508.915"><path d="M1393.521 1772.128c-36.634-25.163-196.212-132.329-290.79-122.475-18.432 1.92-53.455-2.988-69.456 32.333-6.713 14.82.615 31.283 1.852 34.293 18.801 45.729 97.541 52.759 175.03 58.788 43.759 3.405 106.702 5.311 183.364-2.939z" fill="#232323"/><path d="M1403.676 1765.638c-15.044 44.871-35.768 102.373-59.781 151.212l-87.432-2.605-62.036-57.286c5.832-48.305 12.712-133.128 16.313-179.165z" fill="#fff"/><path d="m1343.896 1919.85-.09-.001-87.432-2.605a3.002 3.002 0 0 1-1.946-.795l-62.036-57.286a2.998 2.998 0 0 1-.943-2.564c4.266-35.328 9.902-97.239 16.301-179.039a2.999 2.999 0 0 1 4.234-2.496l192.936 87.844a3 3 0 0 1 1.601 3.684c-21.052 62.793-40.656 112.375-59.933 151.582a3.002 3.002 0 0 1-2.692 1.676zm-86.222-8.57 84.378 2.514c18.623-38.155 37.587-86.138 57.918-146.546l-186.574-84.948c-6.176 78.614-11.63 138.475-15.808 173.495z" fill="#232323"/><path d="M1386.934 1813.68c-10.333 28.331-24.959 65.846-41.058 99.126-.648 1.352-1.325 2.692-1.98 4.044l-87.432-2.605-62.036-57.286c2.07-16.895 4.382-39.981 6.599-63.958z" fill="#d9c6f4"/><path d="M1197.253 1831.708c39.345 3.708 126.293 13.261 175.704 18.747a1317.76 1317.76 0 0 0 4.18-10.682c-48.794-5.42-138.402-15.277-178.762-19.085-.376 3.764-.75 7.45-1.122 11.02z" fill="#fff"/><path d="m1343.896 1919.85-.09-.001-87.432-2.605a3.002 3.002 0 0 1-1.946-.795l-62.036-57.286a2.998 2.998 0 0 1-.943-2.564c4.266-35.328 9.902-97.239 16.301-179.039a2.999 2.999 0 0 1 4.284-2.473l191.565 91.51a3 3 0 0 1 1.556 3.646c-13.023 39.499-33.755 97.225-58.564 147.925a3.004 3.004 0 0 1-2.695 1.682zm-86.222-8.57 84.374 2.514c23.769-48.909 43.726-104.152 56.579-142.921l-185.237-88.488c-6.173 78.571-11.625 138.404-15.801 173.41z" fill="#232323"/><path d="M1594.293 2065.703c-11.189 12.839-34.449 30.507-82.525 33.823-88.585 6.117-355.164-3.028-355.164-3.028 5.665-28.859 31.325-196.689 37.736-238.892 31.748 2.962 45.118 31.796 70.831 41.658 23.605 8.723 70.792 16.022 106.8 20.934 94.658 13.956 183.804 64.699 222.322 145.505z" fill="#fff"/><path d="M1419.03 2104.616c-111.605 0-260.533-5.051-262.529-5.119a3 3 0 0 1-2.841-3.576c6.304-32.111 37.4-236.702 37.714-238.765a2.998 2.998 0 0 1 3.245-2.536c19.521 1.821 32.306 12.836 44.669 23.488 8.624 7.43 16.77 14.448 26.957 18.356 18.13 6.699 52.857 13.495 106.131 20.763 48.725 7.183 94.845 23.82 133.408 48.117 41.136 25.918 72.678 60.176 91.217 99.069a3 3 0 0 1-.446 3.262c-22.232 25.511-58.267 33.03-84.581 34.845-22.081 1.524-55.403 2.096-92.944 2.096zm-258.829-10.999c31.728 1.043 269.431 8.575 351.36 2.917 43.955-3.032 67.206-18.389 79.156-31.336-18.16-37.125-48.596-69.866-88.132-94.777-37.861-23.855-83.179-40.195-131.052-47.253-53.68-7.323-88.822-14.222-107.402-21.088-11.197-4.295-20.125-11.987-28.759-19.426-11.527-9.931-22.449-19.341-38.503-21.721-3.696 24.272-29.612 194.247-36.668 232.684z" fill="#232323"/><path d="M1584.955 2047.658c-77.222 52.815-166.27 22.601-210.087 3.436-37.788-16.531-50.755 3.642-81.627-6.802-47.899-24.178-70.332-50.293-126.361-9.408 7.921-52.994 21.047-135.08 27.459-177.281 31.748 2.962 45.118 31.796 70.831 41.658 23.608 8.725 70.791 16.02 106.8 20.934 93.544 15.238 165.12 54.75 212.985 127.463z" fill="#232323"/><path d="M1181.119 1977.978c-1.393-.027-2.211-.115-2.373-.134a3.352 3.352 0 0 1 .772-6.659c.202.015 20.507 2.03 46.277-15.548 5.695-3.885 10.365-7.374 14.485-10.451 15.976-11.936 24.777-18.509 56.52-22.12a3.352 3.352 0 1 1 .83 6.653l-.071.008c-29.94 3.405-37.734 9.223-53.262 20.829-4.175 3.119-8.906 6.652-14.719 10.619-23.044 15.716-41.972 16.928-48.459 16.803z" fill="#fff"/><path d="M1482.498 2079.994a219.569 219.569 0 0 1-15.359-.841c-29.286-2.62-60.706-11.198-93.388-25.495-20.771-9.086-34.385-7.423-47.552-5.812-10.07 1.231-20.484 2.504-33.189-1.464-11.96-3.736-19.502-9.538-26.789-15.154-9.085-6.997-17.667-13.606-34.673-16.545-29.14-5.019-59.938 16.66-60.246 16.878-1.256.897-3.002.607-3.9-.648s-.607-3 .649-3.897c1.335-.953 33.034-23.269 64.45-17.836 18.37 3.173 27.908 10.521 37.13 17.625 7.219 5.559 14.037 10.81 25.045 14.247 11.562 3.612 20.927 2.466 30.845 1.253 13.264-1.623 28.3-3.46 50.473 6.24 32.127 14.054 62.961 22.482 91.644 25.048 43.686 3.907 82.633-5.59 115.739-28.238 1.301-.832 3.031-.453 3.864.846s.454 3.028-.847 3.861c-30.235 20.634-65.123 30.675-103.896 29.932z" fill="#232323"/><path d="M1224.525 2082.256c-9.727-.186-18.852-2.578-25.759-6.752-7.443-4.501-11.491-10.559-11.399-17.066s4.31-12.449 11.876-16.734c7.094-4.018 16.42-6.154 26.262-6.014l.321.006c9.727.186 18.852 2.578 25.759 6.752 7.442 4.501 11.491 10.559 11.399 17.065-.092 6.507-4.311 12.45-11.877 16.735-7.093 4.018-16.419 6.154-26.261 6.014zm1.197-40.973-.295-.006c-8.863-.126-17.182 1.752-23.425 5.286-5.767 3.269-8.98 7.513-9.043 11.955-.064 4.441 3.027 8.775 8.701 12.205 6.071 3.67 14.219 5.778 22.969 5.945l.296.006c8.863.126 17.182-1.752 23.425-5.288 5.767-3.268 8.98-7.513 9.043-11.953.063-4.442-3.028-8.775-8.701-12.206-6.072-3.669-14.219-5.776-22.97-5.944z" fill="#232323"/><path d="M1345.374 1994.279c-4.631-.095-8.308-3.923-8.214-8.55a8.373 8.373 0 0 1 .711-3.209c.857-1.935 21.603-47.595 75.612-65.421 4.388-1.481 9.147.874 10.629 5.259s-.874 9.14-5.262 10.621l-.105.035c-46.733 15.421-65.361 55.899-65.543 56.307a8.406 8.406 0 0 1-7.828 4.958zm39.55 13.535c-4.631-.095-8.308-3.923-8.214-8.55a8.386 8.386 0 0 1 .767-3.333c.906-1.962 22.845-48.221 78.309-63.305 4.452-1.278 9.098 1.291 10.377 5.74a8.38 8.38 0 0 1-5.973 10.431c-47.701 12.975-67.302 53.772-67.494 54.182a8.407 8.407 0 0 1-7.772 4.835zm45.435 10.311a8.379 8.379 0 0 1-7.362-12.053c.833-1.7 21.009-41.794 71.625-54.905 4.487-1.147 9.056 1.558 10.204 6.042a8.379 8.379 0 0 1-5.994 10.182c-42.917 11.117-60.61 45.734-60.784 46.081a8.408 8.408 0 0 1-7.689 4.653z" fill="#d9c6f4"/><path d="M846.43 2164.83c-44.235-42.002-377.354-189.638-372.072-69.9 3.346 75.824 229.907 121.749 372.072 69.9z" fill="#232323"/><path d="M854.835 2160.782a4836.57 4836.57 0 0 1-29.402 171.334l-99.171-.609-67.506-50.726c.922-48.647-.803-133.731-1.872-179.896l197.951 59.897z" fill="#fff"/><path d="M825.432 2335.116h-.019l-99.171-.609a3 3 0 0 1-1.784-.602l-67.506-50.726a2.998 2.998 0 0 1-1.197-2.455c.675-35.596.028-97.759-1.871-179.77a3.003 3.003 0 0 1 3.869-2.941l197.951 59.897a3 3 0 0 1 2.097 3.325 4869.063 4869.063 0 0 1-14.297 87.928 4857.784 4857.784 0 0 1-15.124 83.512 3.002 3.002 0 0 1-2.948 2.441zm-98.161-6.604 95.68.588a4863.308 4863.308 0 0 0 14.639-80.954 4871.107 4871.107 0 0 0 13.885-85.247l-191.497-57.944c1.801 78.891 2.423 139.05 1.804 174.348z" fill="#232323"/><path d="M845.907 2218.272a4474.647 4474.647 0 0 1-22.354 123.506l-97.287-10.274-67.511-50.721c.384-19.416.289-43.593.106-64.297z" fill="#d9c6f4"/><path d="M842.298 2239.614c-.625 3.689-1.268 7.378-1.91 11.067-51.232-.22-137.144-.493-181.367-.123.009-3.61 0-7.308-.018-11.076 44.892-.388 132.283-.097 183.295.132z" fill="#fff"/><path d="M825.432 2335.116h-.019l-99.171-.609a3 3 0 0 1-1.784-.602l-67.506-50.726a2.998 2.998 0 0 1-1.197-2.455c.675-35.596.028-97.759-1.871-179.77a3.003 3.003 0 0 1 3.869-2.941l197.951 59.897a3 3 0 0 1 2.097 3.325 4869.063 4869.063 0 0 1-14.297 87.928 4857.784 4857.784 0 0 1-15.124 83.512 3.002 3.002 0 0 1-2.948 2.441zm-98.161-6.604 95.68.588a4863.308 4863.308 0 0 0 14.639-80.954 4871.107 4871.107 0 0 0 13.885-85.247l-191.497-57.944c1.801 78.891 2.423 139.05 1.804 174.348z" fill="#232323"/><path d="M1057.773 2469.004c-11.005 12.804-33.944 30.477-81.582 34.092-87.778 6.667-352.115-.585-352.115-.585 12.507-66.793 27.478-179.574 35.785-237.084 31.493 2.72 44.944 31.214 70.502 40.816 47.527 15.69 163.598 23.114 203.799 48.264 51.057 24.306 99.404 62.552 123.611 114.497z" fill="#fff"/><path d="M854.773 2508.894c-105.66 0-228.972-3.335-230.779-3.385a3 3 0 0 1-2.866-3.552c9.804-52.358 21.227-133.747 29.568-193.174 2.267-16.153 4.408-31.41 6.196-43.787a2.997 2.997 0 0 1 3.228-2.56c19.373 1.673 32.125 12.509 44.457 22.987 8.583 7.293 16.69 14.181 26.786 17.989 18.481 6.091 47.692 10.969 78.618 16.132 49.499 8.265 100.678 16.81 125.625 32.326 58.774 28.014 103.12 69.156 124.887 115.865a2.999 2.999 0 0 1-.444 3.222c-21.873 25.448-57.551 33.149-83.629 35.128-27.522 2.093-72.7 2.809-121.647 2.809zm-227.106-9.289c31.632.823 267.153 6.663 348.297.5 43.557-3.305 66.498-18.691 78.251-31.606-21.49-44.758-64.499-84.222-121.343-111.283a2.774 2.774 0 0 1-.302-.166c-23.879-14.939-76.847-23.783-123.579-31.586-31.191-5.208-60.653-10.127-79.569-16.372a3.882 3.882 0 0 1-.115-.04c-11.1-4.17-20.005-11.737-28.616-19.054-11.485-9.758-22.368-19.005-38.276-21.262-1.698 11.817-3.684 25.968-5.778 40.883-8.167 58.192-19.288 137.425-28.97 189.986z" fill="#232323"/><path d="M1048.393 2451.178c-76.195 52.884-164.68 23.537-208.248 4.835-37.574-16.131-50.291 3.956-80.968-6.188-47.65-23.643-68.368-51.771-123.635-10.859 7.492-52.59 18.248-131.664 24.318-173.544 31.493 2.72 44.945 31.214 70.502 40.816 23.463 8.489 70.288 15.4 106.019 20.026 92.84 14.472 164.066 53.155 212.012 124.914z" fill="#232323"/><path d="M647.574 2384.848c-1.381-.017-2.193-.099-2.353-.116a3.324 3.324 0 0 1 .72-6.607c.201.014 20.343 1.873 45.771-15.729 5.619-3.89 10.225-7.381 14.289-10.459 15.757-11.941 24.437-18.518 55.881-22.313a3.324 3.324 0 1 1 .798 6.598c-29.658 3.579-37.345 9.4-52.66 21.011-4.117 3.12-8.784 6.655-14.519 10.627-22.74 15.737-41.496 17.067-47.927 16.988z" fill="#fff"/><path d="M947.042 2483.932a218.238 218.238 0 0 1-15.232-.729c-29.051-2.398-60.258-10.688-92.754-24.64-20.653-8.866-34.138-7.125-47.18-5.438-9.975 1.289-20.29 2.622-32.912-1.226-11.883-3.623-19.398-9.323-26.661-14.841-9.054-6.875-17.606-13.369-34.486-16.166-28.922-4.777-59.307 16.924-59.61 17.143a2.773 2.773 0 0 1-3.871-.616 2.768 2.768 0 0 1 .617-3.868c1.317-.954 32.59-23.293 63.772-18.121 18.233 3.02 27.738 10.24 36.929 17.22 7.195 5.462 13.989 10.621 24.925 13.954 11.487 3.502 20.763 2.302 30.587 1.032 13.139-1.699 28.032-3.622 50.079 5.843 31.945 13.714 62.569 21.859 91.022 24.208 43.335 3.576 81.88-6.104 114.547-28.781 1.284-.834 3.001-.47 3.836.812s.471 2.999-.813 3.833c-29.834 20.662-64.353 30.853-102.795 30.381z" fill="#232323"/><path d="M691.313 2487.929c-9.644-.119-18.707-2.428-25.582-6.519-7.409-4.412-11.463-10.389-11.416-16.841.047-6.451 4.188-12.37 11.66-16.67 7.005-4.032 16.236-6.212 25.994-6.141l.318.004c9.644.119 18.707 2.428 25.582 6.519 7.408 4.411 11.463 10.389 11.416 16.84-.047 6.451-4.189 12.372-11.661 16.671-7.004 4.031-16.235 6.212-25.993 6.141zm.908-40.627-.293-.004c-8.788-.065-17.022 1.854-23.187 5.4-5.695 3.28-8.851 7.51-8.884 11.913s3.061 8.679 8.709 12.041c6.043 3.597 14.135 5.631 22.811 5.738l.294.004c8.788.065 17.022-1.854 23.187-5.401 5.695-3.279 8.851-7.51 8.884-11.912.032-4.404-3.062-8.679-8.709-12.042-6.044-3.596-14.135-5.63-22.812-5.737z" fill="#232323"/><path d="M810.519 2399.89c-4.591-.062-8.263-3.832-8.201-8.42a8.301 8.301 0 0 1 .683-3.186c.836-1.924 21.093-47.33 74.514-65.37 4.34-1.498 9.074.804 10.573 5.141s-.804 9.067-5.145 10.565l-.104.035c-46.224 15.606-64.416 55.86-64.594 56.266a8.329 8.329 0 0 1-7.726 4.969zm39.301 13.15c-4.591-.062-8.263-3.833-8.201-8.42a8.324 8.324 0 0 1 .737-3.309c.885-1.951 22.32-47.96 77.201-63.291 4.404-1.298 9.028 1.218 10.326 5.619 1.299 4.401-1.219 9.021-5.624 10.318a8.43 8.43 0 0 1-.227.063c-47.201 13.188-66.354 53.765-66.542 54.173a8.333 8.333 0 0 1-7.67 4.847zm45.112 9.912c-4.591-.065-8.261-3.836-8.197-8.424a8.302 8.302 0 0 1 .816-3.475c.815-1.691 20.543-41.575 70.633-54.917a8.307 8.307 0 0 1 4.284 16.055c-42.47 11.312-59.775 45.751-59.945 46.097a8.335 8.335 0 0 1-7.591 4.664z" fill="#d9c6f4"/><path d="M1293.152 506.646c-19.498 12.963-233.199 157.101-202.497 237.714 5.847 15.351 18.999 33.854 36.518 35.408 59.302 5.26 123.567-146.799 165.979-273.122z" fill="#232323"/><path d="M1511.501 740.835c-8.875 63.857-72.644 117.193-80.119 123.259-54.912 44.602-88.121 66.912-184.889 121.498-35.464 20.003-70.663 28.975-87.162 41.38.933 6.586 1.875 16.693.933 28.904-1.875 24.326-9.632 33.641-4.138 39.672 8.584 9.429 31.589-5.23 44.954 7.642 1.497 1.444 5.415 5.212 5.001 9.649-1.18 12.828-37.7 22.53-66.384 21.834-9.905-.238-50.985-1.232-78.683-31.264-29.072-31.51-32.593-77.442-30.225-102.851 7.229-77.803 65.195-130.347 117.713-186.738 31.907-34.257 40.191-42.524 61.612-58.874 0 0 .009 0 .009-.009 1.488-1.136 3.046-2.307 4.675-3.539a518.891 518.891 0 0 1-7.387-2.034c-53.539-15.082-97.525-35.314-151.97-49.911 46.662-73.366 116.216-171.383 162.878-244.758 193.694 97.729 306.881 187.567 293.182 286.14z" fill="#fff"/><path d="M1142.633 1137.709c-1.012 0-2.014-.012-3.007-.036-43.183-1.037-67.783-18.099-80.815-32.229-27.328-29.62-33.935-73.745-31.007-105.163 6.54-70.388 54.71-121.156 101.295-170.253 5.662-5.967 11.517-12.137 17.209-18.25 31.979-34.335 40.196-42.572 61.825-59.09-.516-.144-1.03-.29-1.543-.436-25.653-7.227-49.48-15.76-72.521-24.012-25.108-8.992-51.071-18.291-79.402-25.887a2.999 2.999 0 0 1-1.754-4.508c23.344-36.702 52.881-80.262 81.446-122.388 28.57-42.134 58.114-85.702 81.433-122.37a3 3 0 0 1 3.883-1.069c103.957 52.451 177.571 99.301 225.048 143.228 53.687 49.671 76.503 97.429 69.752 146.001-9.024 64.937-73.838 119.202-81.199 125.176-56.527 45.914-91.164 68.677-185.306 121.782-17.728 9.999-35.19 17.185-50.597 23.524-14.283 5.877-26.729 10.999-34.826 16.622a136.227 136.227 0 0 1 .711 27.755c-.838 10.874-2.844 18.896-4.309 24.754-1.813 7.252-2.533 10.548-.603 12.667 2.92 3.208 9.027 2.549 16.1 1.785 9.127-.985 20.486-2.212 28.718 5.716 1.774 1.712 6.453 6.226 5.907 12.089-.854 9.288-14.06 15.23-24.986 18.578-12.443 3.814-27.715 6.014-41.452 6.014zm69.301-380.377c-21.379 16.318-29.468 24.425-61.237 58.534-5.712 6.133-11.576 12.314-17.248 18.291-47.994 50.582-93.326 98.359-99.673 166.68-2.809 30.133 3.451 72.368 29.443 100.539 12.246 13.278 35.467 29.313 76.55 30.299 29.282.708 62.421-9.292 63.325-19.11.279-2.994-2.892-6.053-4.085-7.205-6.222-5.992-15.22-5.021-23.921-4.082-8.335.9-16.209 1.75-21.18-3.711-4.177-4.585-2.753-10.28-.782-18.162 1.492-5.965 3.348-13.389 4.147-23.76.723-9.374.416-18.88-.913-28.253a3.002 3.002 0 0 1 1.167-2.819c8.633-6.491 22.038-12.007 37.559-18.393 15.246-6.273 32.526-13.384 49.932-23.202 93.784-52.903 128.264-75.56 184.472-121.214 7.174-5.822 70.33-58.684 79.038-121.344 6.46-46.484-15.745-92.531-67.884-140.771-46.693-43.201-119.081-89.351-221.254-141.052-23.131 36.257-52.066 78.928-80.069 120.225-27.654 40.782-56.219 82.908-79.159 118.805 27.033 7.45 51.87 16.345 75.927 24.961 22.945 8.218 46.672 16.715 72.135 23.888a542.4 542.4 0 0 0 7.354 2.025 3 3 0 0 1 1.03 5.288l-1.573 1.188c-1.042.787-2.053 1.55-3.033 2.298-.022.021-.045.039-.068.057zM146.841 586.764c193.377 179.115 266.756 210.172 291.362 191.779 23.246-17.376 6.23-81.734-15.79-118.703-45.4-76.224-157.618-110.907-275.572-73.076z" fill="#232323"/><path d="M585.817 882.282a659.518 659.518 0 0 0-38.016 87.413c-90.092 256.517 12.44 434.821 8.079 679.613-1.823 102.313-1.3 195.631-80.181 430.831 5.705-8.357 7.694-17.093 22.43-23.948 50.194-23.35 86.094 22.382 163.015 61.14 43.284 21.81 108.899 47.567 193.69 62.619 34.7-164.72 45.456-300.186 51.03-394.303 6.039-101.969 5.971-192.671 3.732-363.776a23685.149 23685.149 0 0 0-4.889-262.799c15.556-12.244 39.368-34.731 54.911-69.965 35.125-79.623-1.974-156.347-8.142-168.596l-365.659-38.229z" fill="#00676c"/><path d="M1451.201 1606.907c-15.539 67.986-31.42 124.695-46.07 163.575-16.719.695-50.459-.617-87.323-9.236-118.496-27.681-206.442-127.494-261.486-102.129-5.045 2.324-12.566 7.529-21.009 18.772 13.422-24.861 38.081-64.633 53.585-92.727 42.26-76.597 57.227-108.292 89.803-191.932-.141-.044-.273-.097-.414-.141a745.455 745.455 0 0 0-5.828-2.016c-35.508-12.159-75.003-23.402-118.259-32.303-114.49-23.569-215.906-22.706-294.061-14.967-3.618-55.308-14.289-288.524 112.175-358.209a150.976 150.976 0 0 1 23.648-10.486c22.926-7.598 54.789-10.75 106.654-.079 59.015 12.15 435.81 117.977 475.429 303.746 19.528 91.58 7.545 177.685-26.844 328.132z" fill="#00676c"/><path d="M1302.841 499.598c-48.221 46.328-88.245 89.513-120.618 126.781-89.812 103.406-73.594 133.437-69.553 139.987 2.703 4.393 6.251 7.167 8.804 8.804-3.557-1.972-35.402-19.678-63.619-34.037a1150.202 1150.202 0 0 0-7.211-3.636c-.511-.255-1.012-.511-1.514-.757a1114.634 1114.634 0 0 0-6.013-2.949c-13.198-6.392-25.101-11.692-25.101-11.692a842.743 842.743 0 0 0-24.203-10.318s-78.877-61.498-121.102-217.007v-.018c-4.288-15.76-8.188-32.488-11.595-50.219-.458-2.386-.951-5.115-1.347-8.1-1.382-10.38-1.532-23.842 5.503-36.326 8.038-14.254 22.697-22.398 37.929-27.179 16.112-5.062 32.866-6.365 43.07-7.158 110.738-8.584 322.436 113.848 356.57 133.824z" fill="#fff"/><path d="M1121.471 778.172c-.493 0-.992-.122-1.453-.377l-.353-.196c-10.755-5.967-38.44-21.205-63.173-33.792-2.432-1.238-4.837-2.45-7.191-3.626l-.524-.263c-.325-.164-.648-.326-.971-.485a1145.44 1145.44 0 0 0-6.003-2.944 971.79 971.79 0 0 0-25.009-11.649 841.383 841.383 0 0 0-24.116-10.281 3.004 3.004 0 0 1-.711-.412c-.819-.639-20.347-16.04-45.309-50.804-22.952-31.964-54.914-87.019-76.844-167.783a2.22 2.22 0 0 1-.039-.161c-4.398-16.183-8.304-33.104-11.607-50.296-.417-2.176-.951-5.081-1.375-8.271-2.013-15.125-.095-27.619 5.863-38.194 7.332-13.001 20.67-22.613 39.644-28.568 16.445-5.167 33.529-6.494 43.736-7.287 105.677-8.191 300.978 100.667 358.319 134.226a2.998 2.998 0 0 1 .564 4.752c-42.003 40.354-82.522 82.944-120.432 126.585-37.766 43.482-61.106 78.892-69.374 105.245-4.281 13.646-4.244 24.143.109 31.2 1.893 3.076 4.54 5.718 7.871 7.854a3 3 0 0 1-1.622 5.527zM995.35 709.168a848.379 848.379 0 0 1 23.884 10.19c.12.054 12.099 5.393 25.188 11.733 1.964.955 3.977 1.944 6.034 2.959.335.165.675.336 1.018.508l.51.256c2.366 1.183 4.785 2.401 7.229 3.646 17.169 8.737 35.745 18.742 49.135 26.06-3.522-8.297-3.179-19.281 1.039-32.724 8.516-27.146 32.258-63.275 70.569-107.384 37.167-42.786 76.832-84.562 117.944-124.222-29.273-17.027-84.291-47.718-145.853-75.479-90.253-40.699-159.406-59.523-205.547-55.946-9.952.773-26.609 2.066-42.403 7.029-17.473 5.484-29.657 14.161-36.215 25.79-5.295 9.398-6.978 20.669-5.143 34.457.404 3.039.917 5.834 1.32 7.93 3.285 17.095 7.168 33.916 11.544 49.997l.039.162c21.651 79.664 53.118 133.947 75.708 165.461 22.817 31.829 41.409 47.466 44 49.577z" fill="#232323"/><path d="M935.16 460.254c47.435 68.461 95.026 197.49 113.969 276.486 24.415 101.816 20.311 191.316 16.517 254.891-66.181 41.794-182.186 103.045-338.963 127.661-125.76 19.748-231.692 8.681-301.985-4.402a17000.98 17000.98 0 0 0 7.801-69.747 17972.834 17972.834 0 0 0 17.732-168.848c.07-.731.15-1.462.22-2.183 4.754-47.499 7.845-80.356 10.248-105.844l.792-8.373c.009-.062.009-.123.018-.185 2.764-29.283 4.649-48.74 7.44-71.772v-.009c.211-1.752.431-3.522.651-5.327 6.181-49.85 16.041-112.677 32.725-186.236v-.009c9.623-42.41 21.509-88.368 36.265-137.487.018-.044.027-.097.044-.141a310.882 310.882 0 0 1 69.219 8.197 310.51 310.51 0 0 1 64.72 22.988c1.814.88 3.575 1.761 5.283 2.632.652.326 1.294.66 1.928.986 1.409.731 2.782 1.453 4.12 2.175 17.001-7.862 61.718-25.603 113.099-11.41 15.398 4.261 28.191 10.495 38.333 16.693.916-.519 1.84-1.039 2.782-1.558.15-.088.299-.167.449-.247 1.62-.907 3.284-1.805 4.983-2.703a301.21 301.21 0 0 1 26.122-12.22 297.455 297.455 0 0 1 33.456-11.445.779.779 0 0 1 .07.114" fill="#fff"/><path d="M588.652 1133.08c-54.946 0-109.928-5.082-164.503-15.239a3 3 0 0 1-2.432-3.289c2.498-21.896 5.122-45.358 7.799-69.735a18034.421 18034.421 0 0 0 17.729-168.82l.219-2.176c4.622-46.177 7.629-78.068 10.045-103.692l.994-10.515.005-.049c.004-.059.01-.114.016-.169 2.757-29.202 4.635-48.617 7.437-71.75l.008-.075.652-5.331c7.622-61.474 18.642-124.198 32.756-186.443.006-.034.013-.069.021-.102 10.335-45.546 22.554-91.87 36.317-137.686l.02-.063c.033-.115.071-.226.112-.328.458-1.145 1.6-1.905 2.802-1.886a314.307 314.307 0 0 1 69.887 8.276 314.073 314.073 0 0 1 65.345 23.21c1.832.889 3.611 1.779 5.336 2.659.482.241.981.498 1.475.753l.46.237c.971.504 1.922 1.001 2.854 1.496 22.368-10.118 65.701-24.239 113.794-10.955 13.076 3.619 25.712 9.036 37.586 16.112.424-.237.852-.475 1.282-.712.116-.07.306-.171.496-.272a230.828 230.828 0 0 1 4.983-2.703 305.76 305.76 0 0 1 26.384-12.343 301.908 301.908 0 0 1 33.795-11.562 3.002 3.002 0 0 1 3.201 1.091c.133.177.268.399.356.577a3 3 0 0 1-2.756 4.338 295.822 295.822 0 0 0-32.317 11.107 299.404 299.404 0 0 0-25.86 12.098 228.53 228.53 0 0 0-4.917 2.667c-.173.092-.283.149-.392.214a284.777 284.777 0 0 0-2.824 1.583 3.002 3.002 0 0 1-3.045-.049c-11.835-7.233-24.476-12.738-37.569-16.361-47.245-13.05-89.849 1.442-111.04 11.242a3.002 3.002 0 0 1-2.684-.083 286.592 286.592 0 0 0-4.077-2.152l-.457-.235c-.472-.243-.949-.489-1.431-.73a292.226 292.226 0 0 0-5.251-2.617 308.045 308.045 0 0 0-64.094-22.766 308.375 308.375 0 0 0-66.31-8.097c-13.469 44.997-25.438 90.462-35.586 135.177l-.021.103c-14.081 62.081-25.073 124.641-32.674 185.942l-.643 5.253-.008.075c-2.799 23.098-4.675 42.494-7.431 71.693l-.005.047-.016.176-.991 10.476c-2.417 25.632-5.425 57.532-10.048 103.72l-.219 2.173a18009.886 18009.886 0 0 1-17.736 168.887 16999.195 16999.195 0 0 1-7.485 66.977c98.985 18.108 199.301 19.414 298.222 3.881 69.381-10.894 137.603-30.138 202.77-57.196a900.158 900.158 0 0 0 133.755-69.218c4.232-71.517 6.65-155.809-16.531-252.475-20.125-83.923-68.088-209.911-113.518-275.477a3 3 0 0 1 4.931-3.417c45.831 66.145 94.167 193.034 114.421 277.495 23.539 98.162 20.908 183.493 16.594 255.77a3.002 3.002 0 0 1-1.393 2.358 906.052 906.052 0 0 1-135.959 70.506c-65.606 27.241-134.289 46.615-204.14 57.583a893.338 893.338 0 0 1-138.496 10.816zm476.994-141.448h.01zM900.514 374.27l.003.007a.049.049 0 0 0-.003-.007zM603.163 143.318c11.953 11.469 33.469 35.514 39.492 61.555a63.48 63.48 0 0 1 1.147 6.338c26.074 1.047 89.087 38.278 89.087 38.278s.536-1.135 1.532-3.215c2.935-6.115 9.868-20.376 18.925-37.839a1318.153 1318.153 0 0 1 9.861-18.657c2.575-4.77 5.246-9.645 7.981-14.542 10.249-18.327 21.396-36.906 31.894-51.62 7.46-10.462 14.585-18.972 20.823-24.053l.005-.002c.064-.055.123-.108.188-.158l.172-.141c40.928-33.31 10.567-95.634-27.483-98.006-16.9-1.078-33.364 5.532-44.364 18.403-35.173-42.999-96.876-7.936-90.548 33.124-59.118-16.099-93.944 56.884-58.712 90.535z" fill="#232323"/><path d="M903.648 269.685c-20.919 43.378-77.926 48.995-83.79 49.471-.053.009-.079.009-.079.009a1062.282 1062.282 0 0 0 9.914 45.606 1082.099 1082.099 0 0 0 5.969 23.666c.96 3.619 1.919 7.202 2.905 10.75.29 1.065.581 2.131.889 3.196.264.969.528 1.928.801 2.888-2.571 7.58-6.11 13.294-9.685 17.608-7.035 8.505-16.174 14.007-26.078 17.432a81.396 81.396 0 0 1-6.154 1.849c-31.185 8.012-67.089-1.726-69.536-2.43 0 0-27.099-8.927-40.191-26.184a66.692 66.692 0 0 1-6.33-10.098 69.528 69.528 0 0 1-4.429-10.9 6.279 6.279 0 0 1-.115-.361c.132-1.805.273-3.619.396-5.432a2272.478 2272.478 0 0 0 4.499-83.499c.053-1.69.115-3.39.167-5.071v-.009l.026-.863c-100.051 11.991-105.704-97.164-40.024-91.758 13.506 1.101 30.031 7.07 49.383 19.924 34.891 19.748 14.817-37.48 49.242-82.284 3.962-5.168 8.655-10.169 14.245-14.87 13.215-11.12 31.44-20.549 56.884-26.474a207.325 207.325 0 0 1 11.833-2.403 423.304 423.304 0 0 0 1.99 5.635 287.834 287.834 0 0 0 1.655 4.552c.211.599.44 1.197.66 1.787.599 1.62 1.215 3.24 1.84 4.86a310.201 310.201 0 0 0 1.655 4.252c.167.44.334.872.51 1.312a520.13 520.13 0 0 0 17.917 40.112c19.669 39.416 56.805 44.409 60.107 75.223 1.57 14.578-3.968 26.068-7.076 32.504z" fill="#fff"/><g fill="#232323"><path d="M770.956 448.329c-22.75 0-41.872-5.398-42.981-5.717a3.47 3.47 0 0 1-.109-.034c-1.143-.376-28.142-9.424-41.643-27.22a69.972 69.972 0 0 1-6.614-10.55 72.506 72.506 0 0 1-4.603-11.317 9.306 9.306 0 0 1-.152-.483 3.004 3.004 0 0 1-.107-1.042l.126-1.704c.092-1.236.185-2.474.269-3.712a2275.853 2275.853 0 0 0 4.494-83.402l.082-2.488c-33.572 3.148-60.643-7.233-74.608-28.747-10.452-16.102-11.521-36.021-2.723-50.746 7.945-13.296 22.769-20.077 40.663-18.604 15.148 1.234 32.209 8.083 50.706 20.355 5.741 3.235 9.965 4.274 12.553 3.088 4.573-2.095 6.478-11.663 8.89-23.777 3.382-16.987 8.013-40.251 23.851-60.864a98.031 98.031 0 0 1 14.693-15.339c14.788-12.443 34.347-21.561 58.135-27.1a211.344 211.344 0 0 1 11.553-2.357l.439-.079a2.999 2.999 0 0 1 3.356 1.974 412.486 412.486 0 0 0 1.977 5.595 262.94 262.94 0 0 0 1.646 4.525c.173.491.339.932.503 1.369l.156.416a354.763 354.763 0 0 0 1.828 4.829c.543 1.42 1.084 2.823 1.642 4.218.18.471.34.887.51 1.311a519.724 519.724 0 0 0 17.816 39.889c9.082 18.2 22.144 28.944 33.668 38.423 13.348 10.979 24.876 20.462 26.736 37.819 1.661 15.448-4.207 27.599-7.359 34.128-19.466 40.366-68.823 49.119-82.995 50.823a1065.732 1065.732 0 0 0 9.254 42.258 1081.756 1081.756 0 0 0 5.953 23.6 937.234 937.234 0 0 0 2.896 10.714c.29 1.066.577 2.116.88 3.166.273 1.002.534 1.951.805 2.899a3.006 3.006 0 0 1-.044 1.786c-2.373 6.998-5.81 13.242-10.216 18.559-6.822 8.248-16.044 14.424-27.408 18.354a84.513 84.513 0 0 1-6.384 1.918c-9.343 2.402-19.029 3.266-28.134 3.266zm-41.267-11.467c1.629.457 37.347 10.243 67.905 2.392a78.192 78.192 0 0 0 5.922-1.779c10.307-3.564 18.633-9.118 24.745-16.508 3.756-4.534 6.731-9.841 8.853-15.79-.186-.666-.369-1.333-.552-2.004-.3-1.036-.596-2.117-.89-3.197a949.673 949.673 0 0 1-2.911-10.769 1084.051 1084.051 0 0 1-5.986-23.734 1070.184 1070.184 0 0 1-9.941-45.735 3 3 0 0 1 2.654-3.559c.043-.005.085-.01.128-.013 6.209-.503 61.239-6.122 81.33-47.784v-.001c3.095-6.409 8.275-17.136 6.797-30.88-1.599-14.921-11.741-23.263-24.582-33.825-11.987-9.86-25.574-21.035-35.227-40.379a525.724 525.724 0 0 1-18.021-40.345 79.225 79.225 0 0 1-.526-1.352 289.175 289.175 0 0 1-1.653-4.247 365.941 365.941 0 0 1-1.852-4.892l-.148-.396a72.27 72.27 0 0 1-.527-1.434 273.096 273.096 0 0 1-1.655-4.551c-.387-1.068-.77-2.144-1.15-3.224a203.013 203.013 0 0 0-9.159 1.916c-22.862 5.324-41.58 14.02-55.637 25.849a92.043 92.043 0 0 0-13.796 14.4c-14.986 19.505-19.46 41.976-22.727 58.383-2.854 14.333-4.915 24.689-12.275 28.061-4.576 2.097-10.328 1.025-18.099-3.373a2.612 2.612 0 0 1-.182-.112c-17.677-11.742-33.815-18.28-47.967-19.433-15.76-1.298-28.198 4.279-35.023 15.702-7.633 12.775-6.611 30.204 2.605 44.402 13.149 20.257 39.51 29.619 72.328 25.686a2.998 2.998 0 0 1 3.356 3.069l-.194 5.946a2282.574 2282.574 0 0 1-4.505 83.623 514.161 514.161 0 0 1-.271 3.738l-.083 1.124a66.398 66.398 0 0 0 4.183 10.253 64.057 64.057 0 0 0 6.044 9.643c12.116 15.965 37.344 24.674 38.689 25.129z"/><path d="M739.175 169.874c-4.769-13.737.775-29.979 12.124-38.745 7.001-6.775 36.236-9.579 29.249 4.555-4.664 6.721-10.989 11.393-15.873 17.64-3.722 4.113-7.906 10.288-11.581 14.902-2.527 3.228-11.657 8.545-13.919 1.648zm17.315 14.705c5.682-3.424 19.534-11.264 30.885-22.909 1.574-1.597 4.173-1.638 5.834-.086l.022.063c4.174 4.153 9.812 11.972 1.027 18.928-10.718 8.534-31.773 11.419-37.889 7.577-.998-.648-1.241-1.977-.571-2.912.188-.277.397-.49.692-.661zm79.731-41.009c-5.982 2.962-10.709 4.012-22.549 6.574-2.237.482-3.701 2.606-3.22 4.843 1.184 5.739 5.827 10.438 15.007 8.361 10.299-2.318 13.929-11.75 13.82-17.857-.051-1.183-1.009-2.127-2.129-2.097-.36-.018-.613.068-.929.176zM702.502 287.783a2.95 2.95 0 0 0-1.873-1.247 2.855 2.855 0 0 0-2.164.416 59.956 59.956 0 0 1-17.282 7.804l-.352.096-.277 6.125.649-.161a65.082 65.082 0 0 0 20.464-8.992 2.917 2.917 0 0 0 1.243-1.85 2.867 2.867 0 0 0-.408-2.191zm100.581-164.165c1.247.593 2.764.603 4.142.412 9.007-1.047 16.495-2.102 25.482-2.184a520.81 520.81 0 0 1-8.312-22.398c-.163.039-.321.076-.483.116.118-.104.24-.199.36-.299-8.062.093-16.286 3.545-21.235 10.023-3.316 3.978-6.059 11.598.046 14.33zm24.562 230.871a551.935 551.935 0 0 1-2.261-9.678 533.897 533.897 0 0 1-5.608-28.627l.079-.01c-.008-.008-.015-.011-.015-.011s-34.975 1.217-57.232-9.967c-5.134 6.057 8.717 50.546 65.037 48.293zm18.618-136.034c-2.303 2.976-5.331 5.281-8.915 6.576a24.29 24.29 0 0 1-10.938 1.689 22.521 22.521 0 0 1-10.239-3.917c-3.081-2.196-5.513-5.178-6.976-8.633l-.022-.063c-.452-1.117-1.745-1.593-2.862-1.141-.927.387-1.449 1.342-1.314 2.356a20.886 20.886 0 0 0 7.279 12.414 23.818 23.818 0 0 0 6.264 3.862c6.871 2.949 14.732 2.594 21.323-.858a25.15 25.15 0 0 0 5.931-4.145c1.827-1.683 3.228-3.786 4.204-6.097.457-1.145-.102-2.366-1.247-2.823-.912-.395-1.987-.027-2.573.738zm-159.829 39.718c-.089-.539-.292-1.037-.563-1.394-24.179-32.978-55.133-21.975-58.661-20.58a2.99 2.99 0 0 0-1.547 1.61 2.81 2.81 0 0 0 .055 2.231c.667 1.458 2.307 2.103 3.859 1.485 2.993-1.21 29.867-10.96 51.597 18.725a2.883 2.883 0 0 0 2.375 1.218c.108 0 .219-.005.33-.017l.015-.002c1.639-.216 2.757-1.649 2.54-3.276z"/><path d="M833.613 194.247c.549-.046 1.012-.346 1.369-.75 4.689-6.333 6.41-10.805 5.537-14.603-1.071-4.789-6.121-7.372-11.893-10.414-12.987-6.792-13.401-14.206-13.423-14.27-.008-1.057-.923-1.874-1.98-1.866s-1.896.86-1.888 1.916c.003.423.22 9.741 15.498 17.657 5.751 2.979 9.275 5.023 9.951 7.829.568 2.489-.99 6.2-4.863 11.407-.628.85-.429 2.053.421 2.681.277.399.806.501 1.271.413z"/></g><path d="M741.386 56.623c.211-.001.401-.066.591-.131 1.139-.389 1.955-1.515 1.734-2.781-.017-.206-1.743-19.149 8.48-34.322a62.655 62.655 0 0 0-3.672-4.062c-3.767 5.247-6.569 11.432-8.294 18.461-2.667 11.009-1.84 20.048-1.773 20.449.158 1.498 1.434 2.545 2.934 2.386z" fill="#fff"/><path d="M572.988 837.868c-9.385-12.58-27.261-44.57-15.166-60.056 5.211-6.672 16.78-6.991 17.519-7.023 23.806-1.031 36.063 30.569 68.851 56.611 13.17 10.46 33.562 23.011 64.36 30.535-59.061 16.315-112.898 10.314-135.564-20.067z" fill="#232323"/><path d="M603.344 1044.51c18.991 50.36 42.014 129.757 42.929 229.113 1.048 113.804-27.372 203.387-48.652 256.071 13.77 128.718-.326 165.986-18.489 172.563-21.658 7.853-37.911-31.986-94.954-57.263-77.926-34.53-111.127 11.648-204.813-14.553-69.835-19.528-62.677-48.335-143.579-69.589-68.515-17.996-103.547-5.186-118.364-27.636-12.097-18.322-8.69-57.043 61.049-147.048 1.268-1.646 4.032-5.168 4.103-5.265.044-.22 2.324-11.507 2.377-11.754 5.283-24.529 14.465-57.219 31.132-93.228 82.953-179.236 260.852-245.55 298.05-258.36 50.246-17.3 94.047-23.851 123.559-26.633 14.712-52.465 15.619-88.192 13.268-111.866-.986-9.834-2.897-38.308.856-78.107.748-7.932 1.698-12.683 2.904-16.979-2.641 14.087 3.594 20.228 8.566 24.652 25.358 22.561 80.876-8.796 124.14 17.608 15.848 9.685 24.458 24.388 29.054 34.337-16.79 3.389-39.055 10.706-59.869 27.293-66.174 52.754-54.35 148.826-53.267 156.644z" fill="#d9c6f4"/><path d="M487.569 894.028c-.484 10.107 15.513 24.766 13.506 34.618-3.988 19.528-7.167 34.275-11.252 49.559-5.441 20.346-10.855 41.063-19.862 71.658-8.17-1.585-22.354-1.277-36.097-4.402-.449-.106-.907-.203-1.365-.317C327.252 1021.311 32.61 956.336 5.096 814.79c-15.68-80.647 59.71-163.803 122.388-217.438 31.484-26.941 59.746-46.434 71.667-54.419 105.519-70.742 215.193-92.814 294.581-98.801l8.593 52.227v.009l25.744 156.425a5804.061 5804.061 0 0 0-59.12 35.138v.009a5733.565 5733.565 0 0 0-53.829 32.796 5979.099 5979.099 0 0 0-92.189 57.958c44.127 24.273 71.147 61.075 127.521 95.42 11.109 6.769 23.364 13.452 37.117 19.914z" fill="#fff"/><path d="M469.962 1052.864c-.189 0-.381-.018-.573-.055-3.138-.609-7.294-.93-12.107-1.301-7.354-.568-15.688-1.211-24.084-3.121l-.514-.118a41.182 41.182 0 0 1-.912-.214l-3.911-.884C318.964 1022.532 29.699 957.086 2.152 815.362c-15.804-81.283 58.373-164.659 123.382-220.29 30.137-25.789 58.013-45.298 71.947-54.632 47.974-32.162 101.099-57.082 157.9-74.065 43.976-13.149 90.448-21.639 138.125-25.235a3 3 0 0 1 3.186 2.504l8.593 52.227.014.093 25.73 156.34a3 3 0 0 1-1.443 3.075 5828.725 5828.725 0 0 0-58.913 35.013 3.017 3.017 0 0 1-.178.116 5765.616 5765.616 0 0 0-53.801 32.779 5995.26 5995.26 0 0 0-87.958 55.246c20.205 11.775 37.082 26.215 54.883 41.445 19.765 16.911 40.203 34.398 68.393 51.572 11.84 7.214 23.888 13.679 36.833 19.762a3.001 3.001 0 0 1 1.721 2.859c-.187 3.906 3.148 9.465 6.374 14.841 4.109 6.849 8.359 13.931 7.075 20.233-4.103 20.091-7.267 34.669-11.293 49.735l-1.89 7.08c-4.924 18.462-10.016 37.553-17.993 64.65a3.003 3.003 0 0 1-2.877 2.154zm21.256-605.529c-46.288 3.678-91.397 12.014-134.119 24.788-56.224 16.811-108.804 41.473-156.278 73.301-13.826 9.261-41.483 28.618-71.387 54.206C13.849 698.542-.377 770.918 8.041 814.217c26.801 137.88 313.291 202.699 421.143 227.101l3.977.9c.326.081.587.14.846.198l.543.125c7.944 1.806 16.046 2.432 23.193 2.984 3.773.291 7.157.553 10.084.953 7.531-25.688 12.447-44.121 17.206-61.964l1.891-7.084c3.988-14.92 7.131-29.406 11.211-49.384.818-4.016-2.821-10.081-6.341-15.946-3.245-5.407-6.586-10.977-7.153-16.136-12.52-5.949-24.232-12.268-35.753-19.288-28.602-17.426-49.226-35.072-69.172-52.137-18.824-16.106-36.604-31.319-58.234-43.216a2.998 2.998 0 0 1-.174-5.153 5989.704 5989.704 0 0 1 92.236-57.988 5781.949 5781.949 0 0 1 53.68-32.706c.057-.04.115-.078.175-.114a5817.234 5817.234 0 0 1 57.374-34.113l-25.409-154.392-.014-.092z" fill="#232323"/><path d="M907.522 1340.147c-.282-3.196-.563-6.392-.863-9.579a2303.764 2303.764 0 0 0-21.984-168.821 3.086 3.086 0 0 1 6.084-1.021 2316.082 2316.082 0 0 1 22.037 169.27c.326 3.495.643 6.991.942 10.486zm295.822-33.218a453.02 453.02 0 0 1-13.25 53.177 447.026 447.026 0 0 1-11.807 32.981 745.455 745.455 0 0 0-5.828-2.016 442.627 442.627 0 0 0 11.762-32.813 448.424 448.424 0 0 0 13.066-52.447 3.087 3.087 0 0 1 3.592-2.474 3.085 3.085 0 0 1 2.465 3.592z" fill="#fff"/><path d="M833.099 657.744c-1.797 0-3.719-.293-5.758-.881a3.083 3.083 0 0 1 1.71-5.923c3.072.887 5.585.851 7.467-.106 9.514-4.841 1.008-39.637-11.868-92.308-6.968-28.5-15.638-63.971-24.47-106.278a3.082 3.082 0 0 1 6.033-1.259c8.811 42.204 17.467 77.618 24.424 106.074 15.477 63.313 22.54 92.21 8.675 99.263-1.857.946-3.934 1.418-6.213 1.418z" fill="#232323"/><circle cx="811.523" cy="560.432" fill="#232323" r="6.603"/><circle cx="822.97" cy="610.621" fill="#232323" r="6.603"/><path d="M503.528 1229.531a3.555 3.555 0 0 0-2.049-1.82c-.28-.098-27.683-9.486-58.96-14.529 4.146-11.421 8.287-22.843 12.428-34.266l1.307-3.605a3.589 3.589 0 0 0-2.148-4.588 3.588 3.588 0 0 0-4.587 2.147c-4.74 13.079-9.482 26.156-14.229 39.234-34.911-4.759-60.624-1.714-76.449 9.066-5.555 3.786-8.312 8.324-8.197 13.489.338 15.155 26.341 31.225 56.453 49.836l4.062 2.512c25.64 15.858 60.755 37.576 59.984 54.694-.192 4.267-1.917 7.696-5.27 10.482-11.127 9.245-38.866 11.071-80.217 5.281l-.025-.003a.251.251 0 0 1-.027-.004c-23.472-3.276-47.033-8.487-61.257-12.271a3.59 3.59 0 0 0-4.381 2.542 3.587 3.587 0 0 0 2.542 4.381c13.548 3.603 35.434 8.48 57.734 11.809l-17.012 46.917c-.326.899-.283 1.871.123 2.738s1.124 1.524 2.022 1.85c.393.143.804.216 1.222.216a3.592 3.592 0 0 0 3.367-2.361l17.529-48.344c14.812 1.978 28.015 2.994 39.239 2.994 20.834 0 35.544-3.444 43.72-10.236 4.922-4.091 7.562-9.363 7.847-15.67.888-19.715-28.174-39.339-63.371-61.108l-4.065-2.513c-25.962-16.045-52.808-32.635-53.058-43.903-.059-2.621 1.599-5.044 5.069-7.409 14.517-9.889 40.201-12.48 74.275-7.492 32.704 4.78 61.695 14.78 61.984 14.881a3.588 3.588 0 0 0 4.556-2.212 3.554 3.554 0 0 0-.161-2.735z" fill="#232323"/><path d="M637.315 506.744c-7.433 63.221-34.261 108.86-71.598 159.062-23.93 32.176-54.483 53.449-70.225 67.105-12.238 10.618-22.398 18.515-31.378 24.951-.88.634-1.743 1.25-2.606 1.849-10.222 7.184-18.956 12.555-27.645 18.102 5.529-5.309 8.998-7.801 9.685-17.608 1.048-14.994-9.412-27.179-28.429-39.469-18.524-11.974-45.166-24.044-77.222-38.888-51.575-23.877-179.695-76.795-211.04-83.957 18.269-16.402 45.362-43.3 82.498-72.759 203.175-161.145 300.101-167.097 329.234-166.26a140.2 140.2 0 0 1 3.425.132" fill="#fff"/><path d="M433.865 780.812a2.999 2.999 0 0 1-2.08-5.164c.447-.429.881-.841 1.301-1.239 4.606-4.366 6.918-6.557 7.469-14.415.89-12.737-7.457-24.068-27.065-36.74-17.078-11.039-41.761-22.454-70.342-35.673l-6.512-3.013c-50.093-23.191-179.123-76.597-210.448-83.754a3 3 0 0 1-1.336-5.157c4.599-4.13 9.665-8.838 15.53-14.29 17.495-16.263 39.269-36.503 67.108-58.587 87.175-69.14 164.767-117.691 230.624-144.303 39.082-15.793 72.917-23.397 100.562-22.604 1.292.036 2.461.081 3.495.135a3 3 0 1 1-.312 5.992 135.48 135.48 0 0 0-3.352-.129c-42.697-1.227-142.004 18.658-327.287 165.611-27.655 21.938-49.333 42.089-66.751 58.281a1966.776 1966.776 0 0 1-11.487 10.625c38.954 11.093 158.406 60.622 206.177 82.737l6.51 3.012c28.787 13.313 53.648 24.811 71.081 36.079 21.665 14.002 30.854 27.017 29.793 42.198-.176 2.514-.529 4.617-1.035 6.428 4.514-2.913 9.22-6.03 14.278-9.585a178.54 178.54 0 0 0 2.578-1.829c10.063-7.212 20.256-15.317 31.165-24.783 3.369-2.922 7.3-6.102 11.853-9.784 16.581-13.411 39.288-31.779 57.931-56.845 38.493-51.756 63.802-96.177 71.026-157.622a2.996 2.996 0 0 1 3.33-2.629 2.999 2.999 0 0 1 2.629 3.33c-7.38 62.771-33.086 107.951-72.17 160.502-19.095 25.674-42.143 44.317-58.972 57.929-4.509 3.647-8.404 6.797-11.694 9.652-11.051 9.588-21.386 17.806-31.596 25.123a190.85 190.85 0 0 1-2.643 1.875c-8.324 5.85-15.674 10.509-22.782 15.015a1727.445 1727.445 0 0 0-4.96 3.151 3.02 3.02 0 0 1-1.616.47zM868.44 518.193c-2.219 4.279-4.948 6.876-8.1 7.721-8.109 2.166-17.802-5.908-30.516-25.409-6.26-9.588-13.303-22.107-21.051-37.392v-.009a743.028 743.028 0 0 1-4.561-9.165 468.05 468.05 0 0 1-.704 13.972v.009c-.828 12.74-2.148 24.74-3.874 35.164-5.661 34.099-15.786 53.037-30.093 56.312-.995.229-2.377.431-4.112.431-3.205 0-7.589-.704-12.898-3.31-39.936-19.598-68.162-117.748-79.96-166.603 1.814.88 3.575 1.761 5.283 2.632a6.279 6.279 0 0 1-.115-.361c.132-1.805.273-3.619.396-5.432a504.964 504.964 0 0 0 1.646 6.779c.81 3.302 1.646 6.603 2.5 9.914 17.309 66.587 43.555 133.102 72.969 147.533 6.718 3.302 11.278 2.782 12.925 2.404 21.271-4.86 29.512-60.423 30.164-111.224.009-.379.017-.757.017-1.136a3.061 3.061 0 0 1 2.421-2.976 3.068 3.068 0 0 1 3.443 1.69c.088.194.185.387.273.572 35.719 75.408 49.832 80.84 54.252 79.643 1.761-.467 3.266-2.765 4.226-4.605 12.986-25.039-11.586-86.238-23.516-112.967a534.41 534.41 0 0 0-1.338-2.949 399.174 399.174 0 0 0-3.363-7.237 3.05 3.05 0 0 1 .907-3.759c.96 3.619 1.919 7.202 2.905 10.75 1.62-.907 3.284-1.805 4.983-2.703 4.499 9.834 10.697 24.203 16.217 39.954 6.788 19.325 12.555 40.711 12.942 58.319v.018c.204 9.087-1.019 17.151-4.268 23.42zM1269.31 729.6a286.89 286.89 0 0 0-24.388 9.579c-11.578 5.177-22.812 11.164-33.659 17.89 1.488-1.136-.273-4.877-2.712-5.573a289.028 289.028 0 0 1 33.861-17.943 291.3 291.3 0 0 1 24.916-9.79 3.083 3.083 0 0 1 3.909 1.928 3.086 3.086 0 0 1-1.927 3.909zm-947.121 52.042a460.96 460.96 0 0 0-10.644-4.473 433.749 433.749 0 0 0-46.328-15.733 3.093 3.093 0 0 1-2.148-3.795 3.086 3.086 0 0 1 3.795-2.148 439.805 439.805 0 0 1 46.997 15.962 435.859 435.859 0 0 1 14.553 6.198z" fill="#232323"/><path d="M390.216 1035.436c58.587 15.005 149.373 31.289 190.785 15.735 23.147-8.694 36.332-24.008 36.176-43.135 8.808-14.738 7.229-24.354 4.868-30.434 13.51-19.26 4.766-34.165 4.766-34.165 9.487-22.002-6.021-35.621-16.316-35.114-15.497.764-38.523 10.957-52.256 6.071-6.817-15.964-8.495-44.051-8.505-83.335-.001-2.346-2.894-3.6-6.315-2.822-14.307 3.11-13.591 43.911-41.646 52.567-12.214 3.769-24.456 3.039-40.658-3.118-11.5-4.37-20.398-8.949-30.786-16.726" fill="#fff"/><path d="M535.069 1060.488c-12.791 0-27.26-.914-43.358-2.745-41.445-4.713-81.845-14.179-102.239-19.401a3 3 0 0 1 1.489-5.813c66.437 17.015 150.973 30.11 188.986 15.833 22.218-8.345 34.374-22.658 34.231-40.302a3.006 3.006 0 0 1 .425-1.563c8.391-14.04 6.671-22.596 4.647-27.81a2.997 2.997 0 0 1 .341-2.808c12.149-17.32 4.939-30.392 4.626-30.94a3.034 3.034 0 0 1-.159-2.691c3.853-8.934 3.571-17.319-.793-23.61-3.66-5.276-9.107-7.492-12.62-7.32-5.505.271-12.09 1.81-19.061 3.44-12.243 2.862-24.904 5.821-34.349 2.461a2.997 2.997 0 0 1-1.753-1.648c-7.232-16.937-8.731-45.953-8.746-84.313-.331-.18-1.257-.415-2.65-.098-4.537.986-7.657 8.43-11.271 17.049-5.611 13.384-12.595 30.041-30.155 35.46-13.069 4.032-26.21 3.052-42.609-3.18-12.626-4.798-21.463-9.6-31.519-17.128a3 3 0 0 1 3.595-4.803c9.57 7.164 17.996 11.74 30.054 16.323 15.268 5.802 26.845 6.716 38.708 3.056 14.88-4.591 20.995-19.177 26.391-32.046 4.261-10.164 7.942-18.942 15.502-20.586 2.974-.676 5.897-.181 7.792 1.33 1.393 1.112 2.161 2.683 2.161 4.424.008 31.847.968 63.604 7.747 80.895 7.764 2.1 18.924-.509 29.736-3.036 7.243-1.693 14.084-3.292 20.131-3.59 6.355-.316 13.524 3.662 17.846 9.892 3.14 4.527 7.452 14.1 1.91 28.107 1.928 4.308 6.36 17.914-4.719 34.702 3.098 9.39 1.388 19.5-5.208 30.83-.211 19.955-13.715 35.956-38.12 45.122-11.549 4.335-27.274 6.507-46.989 6.507z" fill="#232323"/><path d="M594.166 959.128c-.589 0-1.163-.002-1.725-.004l-1.401-.003a3 3 0 0 1 .002-6h.002l1.414.003c10.376.034 24.587.077 31.82-11.297a3 3 0 0 1 5.063 3.219c-8.551 13.449-24.117 14.082-35.175 14.082zm-5.009 34.654h-.039a3 3 0 0 1 .002-6h.032c8.567 0 23.74-3.194 30.513-12.008a3 3 0 1 1 4.758 3.657c-7.58 9.862-23.585 14.351-35.266 14.351zm-3.11 30.727h-.031a3 3 0 0 1 .003-6h.03c8.128 0 23.052-3.273 28.588-12.07a3 3 0 1 1 5.078 3.196c-7.405 11.767-25.241 14.874-33.668 14.874zm-461.318 326.216c2.09-1.268 4.172-2.53 6.233-3.794a3 3 0 1 0-3.134-5.115 1510.902 1510.902 0 0 1-6.21 3.779c-12.742 7.728-25.832 15.669-37.039 25.391l-2.004 9.916-.611.783c11.972-12.273 27.617-21.773 42.765-30.96zm464.696 124.271a3 3 0 0 0-2.002 3.74c5.273 17.422 7.463 30.358 10.378 52.766.003.027.014.052.018.079-.067-.632-.13-1.252-.198-1.888a672.996 672.996 0 0 0 4.447-11.315c-2.271-15.717-4.563-27.042-8.903-41.381a3 3 0 0 0-3.74-2.001z" fill="#232323"/></svg></g><g transform="translate(1680.0 2269.0) rotate(0.0 531.0 311.5) scale(1.10276365864169 1.101165857141847)"><svg width="963.035" height="565.764" viewBox="0 0 963.035 565.764"><g><g><path transform="matrix(-1 -4.426072e-11 4.426072e-11 -1 679.2714 426.7472)" style="fill:#d9c6f4" d="M47.949 145.569h583.373v135.61H47.949z"/><path style="fill:#232323" d="M47.642 141.691h584.393v6.242H47.642zm-.712 134.733h584.393v6.242H46.93z"/><path style="fill:#232323" d="M571.014 144.812h6.242v136.255h-6.242zm-116.347 0h6.242v136.255h-6.242zm-125.431 1.513h6.242v136.256h-6.242zm-119.375 0h6.242v136.256h-6.242zm-111.717 0h6.242v136.256h-6.242z"/><path transform="matrix(-1 -4.486690e-11 4.486690e-11 -1 808.4431 698.3651)" style="fill:#d9c6f4" d="M112.025 280.302h584.393v137.761H112.025z"/><path style="fill:#232323" d="M112.738 276.424h584.393v6.242H112.738zm-.713 134.733h584.393v6.242H112.025z"/><path style="fill:#232323" d="M636.111 279.545h6.242v136.256h-6.242zm-116.348 0h6.242v136.256h-6.242zm-125.431 1.514h6.242v136.255h-6.242zm-119.375 0h6.242v136.255h-6.242zm-111.718 0h6.242v136.255h-6.242z"/><path transform="matrix(-1 -4.420165e-11 4.420165e-11 -1 585.0804 965.514)" style="fill:#d9c6f4" d="M.688 415.035h583.705v135.443H.688z"/><path style="fill:#232323" d="M.712 411.157h584.393v6.242H.712zM0 545.89h584.393v6.242H0z"/><path style="fill:#232323" d="M524.085 414.279h6.242v136.255h-6.242zm-116.347 0h6.242v136.255h-6.242zm-125.431 1.513h6.242v136.256h-6.242zm-119.375 0h6.242v136.256h-6.242zm-111.718 0h6.242v136.256h-6.242z"/></g><path style="fill:#232323" d="M484.843 143.497c26.108-3.641 44.702.191 54.772 3.027 104.694 29.487 31.911 286.575 161.272 379.942 21.017 15.169 41.599 22.299 53.683 25.735l-170.834-.002c-26.982-38.521-64.754-102.423-86.722-189.214-23.502-92.856-18.744-171.731-12.171-219.488z"/><g><path style="fill:#d9c6f4" d="m512.474 260.594 1.572 7.135c7.445 32.475 19.086 66.489 34.987 100.458.196.451.407.888.618 1.339a570.194 570.194 0 0 0 2.439 5.098c15.664 32.389 33.836 61.721 53.366 87.149a304.99 304.99 0 0 0 4.526 5.782c25.466 32.038 53.082 57.461 80.409 74.4 2.3 1.435 4.575 2.783 6.852 4.075.027.03.07.046.098.061l.461.276c35.49 20.037 70.123 25.423 98.52 12.043l69.929-32.951 14.126-6.65 25.659-12.09c71.283-33.568 76.401-172.572 11.435-310.479C852.519 58.348 742.07-26.226 670.8 7.357l-25.615 12.049-.015.014-.001.014-14.125 6.65-.015.014-69.943 32.936c-28.412 13.395-46.305 43.512-53.44 83.633a177.933 177.933 0 0 0-1.341 8.533c-4.346 31.86-2.317 69.348 6.169 109.394z"/><path style="fill:#232323" d="M604.976 117.699c-1.447 29.747 1.594 61.945 8.824 95.14a323.625 323.625 0 0 0 1.615 7.137c7.749 33.087 19.594 67.023 35.206 100.353.196.451.407.888.618 1.339a570.194 570.194 0 0 0 2.439 5.098c15.373 31.806 33.37 61.23 53.161 87.255a351.893 351.893 0 0 0 4.469 5.794c20.992 26.701 43.881 49.578 67.744 67.392a256.603 256.603 0 0 0 11.004 7.799 228.127 228.127 0 0 0 7.047 4.582c24.004 14.991 47.388 23.7 69.148 25.87l14.126-6.65a94.71 94.71 0 0 1-7.286-.02c-71.055-2.843-159.928-82.439-215.399-200.177-57.368-121.785-60.504-245.188-12.522-299.177l-14.125 6.65-.015.014c-12.185 18.158-20.373 41.734-24.096 69.804a222.798 222.798 0 0 0-.963 8.349 258.262 258.262 0 0 0-.995 13.448z"/><path transform="matrix(0.9046 -0.4262 0.4262 0.9046 -90.5349 289.6723)" style="fill:#232323" d="M543.497 343.579h117.092v7.138H543.497z"/><path style="fill:#232323" d="m690.391 541.956 99.665-46.95 5.286-2.489 3.042 6.466-1.281.606-99.302 46.778zm-84.935-80.182a304.99 304.99 0 0 0 4.526 5.782l101.326-47.74 1.02-.488-3.057-6.452-2.432 1.146-101.383 47.752zm-97.809-319.107 99.287-46.765 1.281-.606 3.042 6.466-5.286 2.489-99.666 46.949zm4.827 117.927L613.8 212.839l1.019-.474 3.042 6.466-2.446 1.145-101.37 47.753z"/><path style="fill:none" d="m512.474 260.594 1.572 7.135c7.445 32.475 19.086 66.489 34.987 100.458.196.451.407.888.618 1.339a570.194 570.194 0 0 0 2.439 5.098c15.664 32.389 33.836 61.721 53.366 87.149a304.99 304.99 0 0 0 4.526 5.782c25.466 32.038 53.082 57.461 80.409 74.4 2.3 1.435 4.575 2.783 6.852 4.075.027.03.07.046.098.061l.461.276c35.49 20.037 70.123 25.423 98.52 12.043l69.929-32.951 14.126-6.65 25.659-12.09c71.283-33.568 76.401-172.572 11.435-310.479C852.519 58.348 742.07-26.226 670.8 7.357l-25.615 12.049-.015.014-.001.014-14.125 6.65-.015.014-69.943 32.936c-28.412 13.395-46.305 43.512-53.44 83.633a177.933 177.933 0 0 0-1.341 8.533c-4.346 31.86-2.317 69.348 6.169 109.394z"/><path style="fill:#232323" d="M640.001 132.917c.286 51.777 15.999 113.287 44.221 173.226 28.236 59.925 65.676 111.217 105.413 144.397 28.04 23.411 55.014 35.935 78.566 36.877 10.428.417 20.189-1.436 29.087-5.623 28.951-13.644 44.729-50.191 44.438-102.911-.272-51.762-15.985-113.287-44.221-173.226-28.236-59.925-65.662-111.216-105.399-144.382-40.469-33.796-78.703-44.898-107.652-31.269-28.951 13.645-44.73 50.191-44.453 102.911zm47.495-96.445c7.849-3.701 16.516-5.34 25.831-4.967 21.911.877 47.394 12.855 74.202 35.245 38.963 32.521 75.723 82.943 103.524 141.964 27.801 59.007 43.258 119.45 43.541 170.212.266 49.776-14.063 84.022-40.348 96.402-26.3 12.393-61.833 1.641-100.048-30.278-38.948-32.52-75.709-82.942-103.51-141.95-27.801-59.021-43.271-119.464-43.541-170.212-.28-49.791 14.063-84.037 40.349-96.416z"/><g><path style="fill:#232323" d="M807.736 414.816a3.571 3.571 0 0 1-5.984-3.778c29.28-63.929 55.814-128.536 31.298-154.715-16.443-17.559-33.503-8.899-51.564.268-16.427 8.336-33.413 16.958-47.746 1.653-18.168-19.403-25.704-64.482 41.567-169.052 1.06-1.669 3.274-2.137 4.932-1.07a3.568 3.568 0 0 1 1.07 4.932c-50.544 78.571-65.588 135.504-42.359 160.311 10.153 10.843 21.551 5.871 39.304-3.14 17.777-9.022 39.9-20.251 60.006 1.219 27.535 29.406.269 96.434-30.018 162.567a3.603 3.603 0 0 1-.506.805z"/><path style="fill:#232323" d="M744.933 152.398a3.567 3.567 0 0 1-5.938-.707l-24.617-49.73a3.56 3.56 0 0 1 1.616-4.781 3.567 3.567 0 0 1 4.781 1.616l24.617 49.73a3.566 3.566 0 0 1-.459 3.872zm117.54 259.721a3.57 3.57 0 0 1-5.948-.726l-26.041-53.443a3.57 3.57 0 0 1 6.416-3.128l26.041 53.443a3.57 3.57 0 0 1-.468 3.854z"/></g></g></g></svg></g></svg>